<?xml version="1.0" encoding="iso-8859-1"?>
<!-- Uploaded to: SVG Repo, www.svgrepo.com, Generator: SVG Repo Mixer Tools -->
<svg height="800px" width="800px" version="1.1" id="Layer_1" xmlns="http://www.w3.org/2000/svg" xmlns:xlink="http://www.w3.org/1999/xlink" 
	 viewBox="0 0 512 512" xml:space="preserve">
<path style="fill:#FFFFFF;" d="M139.191,508.001h278.502c15.731-0.044,28.473-12.786,28.517-28.517V32.516
	c-0.044-15.731-12.786-28.473-28.517-28.517H94.315C78.583,4.044,65.842,16.785,65.798,32.516v402.306"/>
<path style="fill:#8E8E8E;" d="M417.693,512H139.183v-8h278.51c13.529-0.018,24.493-10.98,24.509-24.509V32.516
	c-0.018-13.53-10.979-24.496-24.509-24.518H94.315c-13.533,0.018-24.5,10.985-24.517,24.518v402.298h-8V32.516
	C61.816,14.566,76.364,0.018,94.315,0h323.378c17.948,0.022,32.491,14.569,32.509,32.516v446.966
	C450.184,497.431,435.641,511.978,417.693,512z"/>
<path d="M139.191,450.246v61.706l-77.136-77.129h61.691C132.261,434.836,139.164,441.73,139.191,450.246z"/>
<circle cx="187.003" cy="176.098" r="21.654"/>
<path d="M211.185,206.412h-48.355c-17.076,0.018-30.915,13.856-30.933,30.933v60.627c0,6.212,5.035,11.247,11.247,11.247
	s11.247-5.035,11.247-11.247v-54.394h6.751V409.61c0,6.212,5.035,11.247,11.247,11.247s11.247-5.035,11.247-11.247v-92.239h6.744
	v92.239c0,6.212,5.035,11.247,11.247,11.247s11.247-5.035,11.247-11.247V243.578h6.751v54.394c0,6.216,5.039,11.255,11.255,11.255
	c6.216,0,11.255-5.039,11.255-11.255v-60.627C242.102,220.268,228.262,206.434,211.185,206.412z"/>
<g>
	<circle style="fill:#E21B1B;" cx="321.252" cy="176.098" r="21.654"/>
	<path style="fill:#E21B1B;" d="M345.428,206.412h-48.355c-17.079,0.014-30.924,13.853-30.941,30.933v60.627
		c0,6.212,5.035,11.247,11.247,11.247s11.247-5.035,11.247-11.247v-54.394h6.751V409.61c0,6.212,5.035,11.247,11.247,11.247
		c6.212,0,11.247-5.035,11.247-11.247v-92.239h6.744v92.239c0,6.212,5.035,11.247,11.247,11.247s11.247-5.035,11.247-11.247V243.578
		h6.751v54.394c0,6.212,5.035,11.247,11.247,11.247s11.247-5.035,11.247-11.247v-60.627
		C376.322,220.278,362.496,206.448,345.428,206.412z"/>
</g>
</svg>